# xmcd
#
# Track frame offsets:
#	150
#	12337
#	24210
#	41432
#	54932
#	72537
#	84467
#	98187
#	118270
#	129290
#
# Disc length: 1962 seconds
#
# Revision: 3
# Processed by: cddbd v1.4PL0 Copyright (c) Steve Scherf et al.
# Submitted via: EasyCDDAExtractor 4.6.0.1
#
DISCID=7907a80a
DTITLE=Trisha Yearwood - The Sweetest Gift
DYEAR=1994
DGENRE=Country
TTITLE0=Sweet Little Jesus Boy
TTITLE1=Reindeer Boogie
TTITLE2=Take A Walk Through Bethlehem
TTITLE3=Santa Claus Is Back In Town
TTITLE4=It Wasn't His Child
TTITLE5=Away In A Manger
TTITLE6=The Sweetest Gift
TTITLE7=There's A New Kid In Town
TTITLE8=Let It Snow! Let It Snow! Let It Snow!
TTITLE9=The Christmas Song (Chestnuts Roasting On An Open Fire)
EXTD=
EXTT0=
EXTT1=
EXTT2=
EXTT3=
EXTT4=
EXTT5=
EXTT6=
EXTT7=
EXTT8=
EXTT9=
PLAYORDER=
